{"title":"Papillon 2018 720p HDCAM X264 [MW]","magnet":"magnet:?xt=urn:btih:0e329d6621ef252a599ddb4f5bcc755788460507&dn=Papillon+2018+720p+HDCAM+X264+%5BMW%5D&tr=udp%3A%2F%2Ftracker.leechers-paradise.org%3A6969&tr=udp%3A%2F%2Fzer0day.ch%3A1337&tr=udp%3A%2F%2Fopen.demonii.com%3A1337&tr=udp%3A%2F%2Ftracker.coppersurfer.tk%3A6969&tr=udp%3A%2F%2Fexodus.desync.com%3A6969","uploader":"MFreaky","categoryP":"video","categoryS":"movies","size":"1127267830","seeders":"29","leechers":"12","description":" <a href=\"https://pichub.site/image/DTvCT\" rel=\"nofollow\" target=\"_NEW\">https://pichub.site/image/DTvCT</a> <a href=\"\nhttps://pichub.site/image/DT0WD\" rel=\"nofollow\" target=\"_NEW\">\nhttps://pichub.site/image/DT0WD</a> <a href=\"\nhttps://pichub.site/image/DTr7Z\" rel=\"nofollow\" target=\"_NEW\">\nhttps://pichub.site/image/DTr7Z</a> <a href=\"\nhttps://pichub.site/image/DToNg\" rel=\"nofollow\" target=\"_NEW\">\nhttps://pichub.site/image/DToNg</a> <a href=\"\nhttps://pichub.site/image/DTp1I\" rel=\"nofollow\" target=\"_NEW\">\nhttps://pichub.site/image/DTp1I</a>\r\n\r\nIMDB <a href=\"\nhttps://www.imdb.com/title/tt5093026/\" rel=\"nofollow\" target=\"_NEW\">\nhttps://www.imdb.com/title/tt5093026/</a>\r\n\r\nVideo\r\nFormat                                   : AVC\r\nFormat/Info                              : Advanced Video Codec\r\nFormat profile                           : High@L4.1\r\nFormat settings                          : CABAC / 4 Ref Frames\r\nFormat settings, CABAC                   : Yes\r\nFormat settings, RefFrames               : 4 frames\r\nCodec ID                                 : V_MPEG4/ISO/AVC\r\nDuration                                 : 2 h 3 min\r\nBit rate                                 : 1 100 kb/s\r\nWidth                                    : 1 280 pixels\r\nHeight                                   : 528 pixels\r\nDisplay aspect ratio                     : 2.40:1\r\nFrame rate mode                          : Constant\r\nFrame rate                               : 30.000 FPS\r\nColor space                              : YUV\r\nChroma subsampling                       : 4:2:0\r\nBit depth                                : 8 bits\r\nScan type                                : Progressive\r\nBits/(Pixel*Frame)                       : 0.054\r\nStream size                              : 960 MiB (89%)\r\nWriting library                          : x264 core 155 r2901 7d0ff22\r\n\r\nAudio\r\nFormat                                   : AAC\r\nFormat/Info                              : Advanced Audio Codec\r\nFormat profile                           : LC\r\nCodec ID                                 : A_AAC-2\r\nDuration                                 : 2 h 3 min\r\nBit rate                                 : 128 kb/s\r\nChannel(s)                               : 2 channels\r\nChannel positions                        : Front: L R\r\nSampling rate                            : 48.0 kHz\r\nFrame rate                               : 46.875 FPS (1024 SPF)\r\nCompression mode                         : Lossy\r\nStream size                              : 113 MiB (11%)\r\nLanguage                                 : English","last_updated":"2018-09-11T12:24:27.910Z","parsed":{"xt":"urn:btih:0e329d6621ef252a599ddb4f5bcc755788460507","dn":"Papillon 2018 720p HDCAM X264 [MW]","tr":["udp://exodus.desync.com:6969","udp://open.demonii.com:1337","udp://tracker.coppersurfer.tk:6969","udp://tracker.leechers-paradise.org:6969","udp://zer0day.ch:1337"],"infoHash":"0e329d6621ef252a599ddb4f5bcc755788460507","infoHashBuffer":{"type":"Buffer","data":[14,50,157,102,33,239,37,42,89,157,219,79,91,204,117,87,136,70,5,7]},"name":"Papillon 2018 720p HDCAM X264 [MW]","announce":["udp://exodus.desync.com:6969","udp://open.demonii.com:1337","udp://tracker.coppersurfer.tk:6969","udp://tracker.leechers-paradise.org:6969","udp://zer0day.ch:1337"],"urlList":[]}}